<svg xmlns="http://www.w3.org/2000/svg" viewBox="0 0 397.7 311.7"><defs><linearGradient id="a" x1="360.88" y1="351.46" x2="141.21" y2="9.87" gradientTransform="matrix(1 0 0 -1 0 314)" gradientUnits="userSpaceOnUse"><stop offset="0" stop-color="#00ffa3"/><stop offset="1" stop-color="#dc1fff"/></linearGradient><linearGradient id="b" x1="264.83" y1="401.6" x2="45.16" y2="60.01" gradientTransform="matrix(1 0 0 -1 0 314)" gradientUnits="userSpaceOnUse"><stop offset="0" stop-color="#00ffa3"/><stop offset="1" stop-color="#dc1fff"/></linearGradient><linearGradient id="c" x1="312.55" y1="376.69" x2="92.88" y2="35.1" gradientTransform="matrix(1 0 0 -1 0 314)" gradientUnits="userSpaceOnUse"><stop offset="0" stop-color="#00ffa3"/><stop offset="1" stop-color="#dc1fff"/></linearGradient></defs><path d="M64.6 237.9c2.4-2.4 5.7-3.8 9.2-3.8h317.4c5.8 0 8.7 7 4.6 11.1l-62.7 62.7c-2.4 2.4-5.7 3.8-9.2 3.8H6.5c-5.8 0-8.7-7-4.6-11.1z" fill="url(#a)"/><path d="M64.6 3.8C67.1 1.4 70.4 0 73.8 0h317.4c5.8 0 8.7 7 4.6 11.1l-62.7 62.7c-2.4 2.4-5.7 3.8-9.2 3.8H6.5c-5.8 0-8.7-7-4.6-11.1z" fill="url(#b)"/><path d="M333.1 120.1c-2.4-2.4-5.7-3.8-9.2-3.8H6.5c-5.8 0-8.7 7-4.6 11.1l62.7 62.7c2.4 2.4 5.7 3.8 9.2 3.8h317.4c5.8 0 8.7-7 4.6-11.1z" fill="url(#c)"/></svg>
