<svg width="400" height="400" viewBox="0 0 400 400" fill="none" xmlns="http://www.w3.org/2000/svg">
<g clip-path="url(#clip0_186_17)">
<path d="M102.31 147C99.7827 147 98.3879 144.066 99.9833 142.106L130.1 105.106C130.669 104.406 131.524 104 132.426 104H302.69C305.217 104 306.612 106.934 305.017 108.894L274.9 145.894C274.331 146.594 273.476 147 272.574 147H102.31Z" fill="url(#paint0_linear_186_17)"/>
<path opacity="0.8" d="M102.31 147C99.7827 147 98.3879 144.066 99.9833 142.106L130.1 105.106C130.669 104.406 131.524 104 132.426 104H302.69C305.217 104 306.612 106.934 305.017 108.894L274.9 145.894C274.331 146.594 273.476 147 272.574 147H102.31Z" fill="url(#paint1_linear_186_17)"/>
<path d="M263 176H97C95.8954 176 95 176.895 95 178V220C95 221.105 95.8954 222 97 222H263C264.105 222 265 221.105 265 220V178C265 176.895 264.105 176 263 176Z" fill="url(#paint2_linear_186_17)"/>
<path opacity="0.8" d="M263 176H97C95.8954 176 95 176.895 95 178V220C95 221.105 95.8954 222 97 222H263C264.105 222 265 221.105 265 220V178C265 176.895 264.105 176 263 176Z" fill="url(#paint3_linear_186_17)"/>
<path d="M118 249H270.142C271.32 249 272.438 249.519 273.199 250.419L304.443 287.419C306.639 290.02 304.79 294 301.387 294H134.858C133.68 294 132.562 293.481 131.801 292.581L100.557 255.581C98.3611 252.98 100.21 249 103.613 249H118Z" fill="url(#paint4_linear_186_17)"/>
<path opacity="0.7" d="M118 249H270.142C271.32 249 272.438 249.519 273.199 250.419L304.443 287.419C306.639 290.02 304.79 294 301.387 294H134.858C133.68 294 132.562 293.481 131.801 292.581L100.557 255.581C98.3611 252.98 100.21 249 103.613 249H118Z" fill="url(#paint5_linear_186_17)"/>
</g>
<defs>
<linearGradient id="paint0_linear_186_17" x1="95" y1="125" x2="315" y2="125" gradientUnits="userSpaceOnUse">
<stop stop-color="#77D4FF"/>
<stop offset="0.1875" stop-color="#4BCAFE"/>
<stop offset="0.394231" stop-color="#4CC5FD"/>
<stop offset="0.673077" stop-color="#5F9BFE"/>
<stop offset="1" stop-color="#5F9BFE"/>
</linearGradient>
<linearGradient id="paint1_linear_186_17" x1="95" y1="125" x2="315" y2="125" gradientUnits="userSpaceOnUse">
<stop stop-color="#77D4FF"/>
<stop offset="0.1875" stop-color="#4BCAFE"/>
<stop offset="0.394231" stop-color="#4CC5FD"/>
<stop offset="0.673077" stop-color="#5F9BFE"/>
<stop offset="1" stop-color="#5F9BFE"/>
</linearGradient>
<linearGradient id="paint2_linear_186_17" x1="94.2019" y1="198.465" x2="269.789" y2="198.465" gradientUnits="userSpaceOnUse">
<stop stop-color="#77D4FF"/>
<stop offset="0.1875" stop-color="#4BCAFE"/>
<stop offset="0.394231" stop-color="#4CC5FD"/>
<stop offset="0.673077" stop-color="#5F9BFE"/>
<stop offset="1" stop-color="#5F9BFE"/>
</linearGradient>
<linearGradient id="paint3_linear_186_17" x1="94.2019" y1="198.465" x2="269.789" y2="198.465" gradientUnits="userSpaceOnUse">
<stop stop-color="#77D4FF"/>
<stop offset="0.1875" stop-color="#4BCAFE"/>
<stop offset="0.394231" stop-color="#4CC5FD"/>
<stop offset="0.673077" stop-color="#5F9BFE"/>
<stop offset="1" stop-color="#5F9BFE"/>
</linearGradient>
<linearGradient id="paint4_linear_186_17" x1="95" y1="275" x2="315" y2="275" gradientUnits="userSpaceOnUse">
<stop stop-color="#4069AC"/>
<stop offset="0.230769" stop-color="#4D81D7"/>
<stop offset="0.519231" stop-color="#3CA3D3"/>
<stop offset="0.716346" stop-color="#4B86CA"/>
<stop offset="0.980769" stop-color="#4A73B5"/>
</linearGradient>
<linearGradient id="paint5_linear_186_17" x1="95" y1="275" x2="315" y2="275" gradientUnits="userSpaceOnUse">
<stop stop-color="#4069AC"/>
<stop offset="0.230769" stop-color="#4D81D7"/>
<stop offset="0.519231" stop-color="#3CA3D3"/>
<stop offset="0.716346" stop-color="#4B86CA"/>
<stop offset="0.980769" stop-color="#4A73B5"/>
</linearGradient>
<clipPath id="clip0_186_17">
<rect width="400" height="400" fill="white"/>
</clipPath>
</defs>
</svg>
